<svg width="20" height="20" viewBox="0 0 20 20" fill="none" xmlns="http://www.w3.org/2000/svg">
<path d="M17.8772 16.5576L14.152 13.0428L15.16 12.0348L15.1744 12.0492C15.2997 12.1742 15.4695 12.2443 15.6464 12.2443C15.8234 12.2443 15.9932 12.1742 16.1184 12.0492L16.3808 11.7872C16.5055 11.6618 16.5755 11.4921 16.5755 11.3152C16.5755 11.1383 16.5055 10.9687 16.3808 10.8432L13.4 7.8616C13.3663 7.82826 13.3291 7.7985 13.2892 7.7728V2.8C13.2892 2.53479 13.1839 2.28043 12.9964 2.0929C12.8088 1.90536 12.5545 1.8 12.2892 1.8H2.80005C2.53483 1.8 2.28048 1.90536 2.09294 2.0929C1.90541 2.28043 1.80005 2.53479 1.80005 2.8V17.2C1.80005 17.4652 1.90541 17.7196 2.09294 17.9071C2.28048 18.0946 2.53483 18.2 2.80005 18.2H12.288C12.5533 18.2 12.8076 18.0946 12.9952 17.9071C13.1827 17.7196 13.288 17.4652 13.288 17.2V14.412L16.5573 17.8772C16.64 17.9732 16.7415 18.0513 16.8555 18.1068C16.9694 18.1623 17.0934 18.194 17.22 18.2H17.2316C17.4252 18.2071 17.6163 18.154 17.7784 18.0478C17.9404 17.9417 18.0655 17.7879 18.1364 17.6076C18.2073 17.4273 18.2204 17.2294 18.174 17.0413C18.1276 16.8532 18.0239 16.6842 17.8772 16.5576Z" fill="#231F20"/>
<path d="M12.288 17.8H11.456C11.4256 17.5509 11.3054 17.3215 11.1179 17.1548C10.9304 16.9882 10.6884 16.8957 10.4376 16.8948H10.4268C10.4202 16.6876 10.3335 16.491 10.1849 16.3464C10.0362 16.2019 9.83728 16.1207 9.62995 16.12H5.45755C5.25023 16.1208 5.05133 16.2021 4.90276 16.3467C4.7542 16.4913 4.66758 16.688 4.66115 16.8952H4.65035C4.39949 16.896 4.15756 16.9884 3.97003 17.155C3.7825 17.3216 3.66227 17.551 3.63195 17.8H2.79995C2.64082 17.8 2.48821 17.7368 2.37569 17.6243C2.26317 17.5117 2.19995 17.3591 2.19995 17.2V2.8C2.19995 2.64087 2.26317 2.48825 2.37569 2.37573C2.48821 2.26321 2.64082 2.2 2.79995 2.2H12.288C12.4471 2.2 12.5997 2.26321 12.7122 2.37573C12.8247 2.48825 12.888 2.64087 12.888 2.8V7.67C12.725 7.67838 12.5709 7.74661 12.4552 7.8616L12.1932 8.124C12.1311 8.18593 12.0819 8.25947 12.0484 8.34043C12.0148 8.42138 11.9975 8.50816 11.9975 8.5958C11.9975 8.68343 12.0148 8.77021 12.0484 8.85117C12.0819 8.93212 12.1311 9.00567 12.1932 9.0676L12.2076 9.0824L9.19995 12.0916L9.18515 12.0772C9.05997 11.9522 8.89028 11.8819 8.71335 11.8819C8.53642 11.8819 8.36673 11.9522 8.24155 12.0772L7.97955 12.3396C7.91754 12.4015 7.86835 12.4751 7.83479 12.556C7.80122 12.637 7.78395 12.7238 7.78395 12.8114C7.78395 12.899 7.80122 12.9858 7.83479 13.0668C7.86835 13.1477 7.91754 13.2213 7.97955 13.2832L10.96 16.2648C11.0219 16.3268 11.0955 16.376 11.1765 16.4096C11.2575 16.4432 11.3443 16.4604 11.432 16.4604C11.5196 16.4604 11.6064 16.4432 11.6874 16.4096C11.7684 16.376 11.842 16.3268 11.904 16.2648L12.166 16.0028C12.2908 15.8774 12.3609 15.7077 12.3609 15.5308C12.3609 15.3539 12.2908 15.1841 12.166 15.0588L12.1516 15.0444L12.8892 14.3068V17.2C12.8892 17.2789 12.8736 17.357 12.8434 17.4299C12.8131 17.5028 12.7688 17.569 12.713 17.6247C12.6571 17.6804 12.5909 17.7246 12.5179 17.7547C12.445 17.7848 12.3668 17.8002 12.288 17.8Z" fill="white"/>
<path d="M4.34526 5.10441H10.7429C10.7959 5.10441 10.8468 5.08334 10.8843 5.04583C10.9218 5.00832 10.9429 4.95745 10.9429 4.90441C10.9429 4.85136 10.9218 4.80049 10.8843 4.76299C10.8468 4.72548 10.7959 4.70441 10.7429 4.70441H4.34526C4.29222 4.70441 4.24135 4.72548 4.20384 4.76299C4.16633 4.80049 4.14526 4.85136 4.14526 4.90441C4.14526 4.95745 4.16633 5.00832 4.20384 5.04583C4.24135 5.08334 4.29222 5.10441 4.34526 5.10441Z" fill="#231F20"/>
<path d="M4.34526 7.32281H10.7429C10.7959 7.32281 10.8468 7.30173 10.8843 7.26423C10.9218 7.22672 10.9429 7.17585 10.9429 7.12281C10.9429 7.06976 10.9218 7.01889 10.8843 6.98139C10.8468 6.94388 10.7959 6.92281 10.7429 6.92281H4.34526C4.29222 6.92281 4.24135 6.94388 4.20384 6.98139C4.16633 7.01889 4.14526 7.06976 4.14526 7.12281C4.14526 7.17585 4.16633 7.22672 4.20384 7.26423C4.24135 7.30173 4.29222 7.32281 4.34526 7.32281Z" fill="#231F20"/>
<path d="M4.34526 9.5416H10.7429C10.7959 9.5416 10.8468 9.52053 10.8843 9.48302C10.9218 9.44552 10.9429 9.39464 10.9429 9.3416C10.9429 9.28856 10.9218 9.23769 10.8843 9.20018C10.8468 9.16267 10.7959 9.1416 10.7429 9.1416H4.34526C4.29222 9.1416 4.24135 9.16267 4.20384 9.20018C4.16633 9.23769 4.14526 9.28856 4.14526 9.3416C4.14526 9.39464 4.16633 9.44552 4.20384 9.48302C4.24135 9.52053 4.29222 9.5416 4.34526 9.5416Z" fill="#231F20"/>
<path d="M4.34526 11.76H8.02806C8.08111 11.76 8.13198 11.7389 8.16949 11.7014C8.20699 11.6639 8.22806 11.613 8.22806 11.56C8.22806 11.507 8.20699 11.4561 8.16949 11.4186C8.13198 11.3811 8.08111 11.36 8.02806 11.36H4.34526C4.29222 11.36 4.24135 11.3811 4.20384 11.4186C4.16633 11.4561 4.14526 11.507 4.14526 11.56C4.14526 11.613 4.16633 11.6639 4.20384 11.7014C4.24135 11.7389 4.29222 11.76 4.34526 11.76Z" fill="#231F20"/>
<path d="M7.50806 13.5784H4.34526C4.29222 13.5784 4.24135 13.5995 4.20384 13.637C4.16633 13.6745 4.14526 13.7254 4.14526 13.7784C4.14526 13.8314 4.16633 13.8823 4.20384 13.9198C4.24135 13.9573 4.29222 13.9784 4.34526 13.9784H7.50806C7.56111 13.9784 7.61198 13.9573 7.64949 13.9198C7.68699 13.8823 7.70806 13.8314 7.70806 13.7784C7.70806 13.7254 7.68699 13.6745 7.64949 13.637C7.61198 13.5995 7.56111 13.5784 7.50806 13.5784Z" fill="#231F20"/>
<path d="M12.4907 9.36513L9.48096 12.3749L11.8679 14.7618L14.8776 11.752L12.4907 9.36513Z" fill="#FF8E5A"/>
<path d="M11.8821 15.3416C11.9322 15.3918 11.9604 15.4598 11.9604 15.5308C11.9604 15.6018 11.9322 15.6698 11.8821 15.72L11.6201 15.982C11.5691 16.0307 11.5013 16.058 11.4309 16.058C11.3604 16.058 11.2926 16.0307 11.2417 15.982L8.26045 13C8.23562 12.9752 8.21592 12.9457 8.20248 12.9133C8.18905 12.8809 8.18213 12.8461 8.18213 12.811C8.18213 12.7759 8.18905 12.7411 8.20248 12.7087C8.21592 12.6763 8.23562 12.6468 8.26045 12.622L8.52245 12.3596C8.57267 12.3096 8.64062 12.2816 8.71145 12.2816C8.78228 12.2816 8.85023 12.3096 8.90045 12.3596L11.8821 15.3416Z" fill="#FFBA50"/>
<path d="M16.098 11.126C16.148 11.1763 16.1761 11.2443 16.1761 11.3152C16.1761 11.3861 16.148 11.4541 16.098 11.5044L15.8356 11.7664C15.7854 11.8165 15.7174 11.8446 15.6464 11.8446C15.5755 11.8446 15.5075 11.8165 15.4572 11.7664L12.476 8.7848C12.4512 8.75998 12.4315 8.73052 12.4181 8.69809C12.4046 8.66566 12.3977 8.6309 12.3977 8.5958C12.3977 8.56069 12.4046 8.52594 12.4181 8.49351C12.4315 8.46108 12.4512 8.43161 12.476 8.4068L12.738 8.1444C12.7882 8.09445 12.8562 8.06641 12.927 8.06641C12.9979 8.06641 13.0658 8.09445 13.116 8.1444L16.098 11.126Z" fill="#FFBA50"/>
<path d="M10.4376 17.2948C10.583 17.2951 10.7239 17.3455 10.8365 17.4375C10.9492 17.5296 11.0267 17.6576 11.056 17.8H4.03198C4.06124 17.6575 4.13872 17.5295 4.25136 17.4375C4.364 17.3454 4.50493 17.295 4.65038 17.2948H10.4376Z" fill="#FF8E5A"/>
<path d="M5.06372 16.8948C5.06913 16.7938 5.11294 16.6987 5.18619 16.6289C5.25944 16.5592 5.35658 16.5201 5.45772 16.5196H9.63012C9.73131 16.5201 9.82849 16.5592 9.9018 16.6289C9.97512 16.6986 10.019 16.7938 10.0245 16.8948H5.06372Z" fill="#FF8E5A"/>
<path d="M17.6139 17.614C17.5659 17.6705 17.5065 17.7163 17.4395 17.7484C17.3726 17.7804 17.2997 17.798 17.2255 17.8C17.1526 17.7945 17.0815 17.7741 17.0166 17.7402C16.9518 17.7063 16.8945 17.6596 16.8483 17.6028L13.3259 13.8692L13.8691 13.326L17.6027 16.8484C17.6594 16.8947 17.7061 16.9519 17.74 17.0168C17.7739 17.0816 17.7943 17.1527 17.7999 17.2256C17.796 17.2994 17.7775 17.3717 17.7456 17.4383C17.7137 17.505 17.6689 17.5647 17.6139 17.614Z" fill="#FFBA50"/>
</svg>
