<svg width="20" height="20" viewBox="0 0 20 20" fill="none" xmlns="http://www.w3.org/2000/svg">
<g clip-path="url(#clip0_276_1289)">
<path d="M13.5 10.625C14.8125 9.625 15.625 8 15.625 6.25C15.625 3.125 13.125 0.625 10 0.625C6.875 0.625 4.375 3.125 4.375 6.25C4.375 8 5.1875 9.625 6.5 10.625C3.25 10.8125 0.625 13.5625 0.625 16.875V18.75C0.625 19.0625 0.9375 19.375 1.25 19.375H10H18.75C19.0625 19.375 19.375 19.0625 19.375 18.75V16.875C19.375 13.5625 16.75 10.8125 13.5 10.625Z" fill="#FFC10A"/>
<path d="M13.5 10.625C12.5625 11.375 11.3125 11.875 10 11.875C8.6875 11.875 7.4375 11.4375 6.5 10.625C3.25 10.8125 0.625 13.5625 0.625 16.875V18.75C0.625 19.0625 0.9375 19.375 1.25 19.375H10H18.75C19.0625 19.375 19.375 19.0625 19.375 18.75V16.875C19.375 13.5625 16.75 10.8125 13.5 10.625Z" fill="#2197F3"/>
</g>
<defs>
<clipPath id="clip0_276_1289">
<rect width="20" height="20" fill="white"/>
</clipPath>
</defs>
</svg>
