<svg width="20" height="20" viewBox="0 0 20 20" fill="none" xmlns="http://www.w3.org/2000/svg">
<path d="M9.99992 1.66666C7.70825 1.66666 5.83325 3.54166 5.83325 5.83333V7.5H7.49992V5.83333C7.49992 4.45833 8.62492 3.33333 9.99992 3.33333C11.3749 3.33333 12.4999 4.45833 12.4999 5.83333V7.5H14.1666V5.83333C14.1666 3.54166 12.2916 1.66666 9.99992 1.66666Z" fill="#424242"/>
<path d="M14.9999 18.3333H4.99992C4.08325 18.3333 3.33325 17.5833 3.33325 16.6667V9.16667C3.33325 8.25 4.08325 7.5 4.99992 7.5H14.9999C15.9166 7.5 16.6666 8.25 16.6666 9.16667V16.6667C16.6666 17.5833 15.9166 18.3333 14.9999 18.3333Z" fill="#FB8C00"/>
<path d="M7.5 12.9167C7.5 13.5797 7.76339 14.2156 8.23223 14.6844C8.70107 15.1533 9.33696 15.4167 10 15.4167C10.663 15.4167 11.2989 15.1533 11.7678 14.6844C12.2366 14.2156 12.5 13.5797 12.5 12.9167C12.5 12.2536 12.2366 11.6177 11.7678 11.1489C11.2989 10.6801 10.663 10.4167 10 10.4167C9.33696 10.4167 8.70107 10.6801 8.23223 11.1489C7.76339 11.6177 7.5 12.2536 7.5 12.9167Z" fill="#EFEBE9"/>
<path d="M8.75 12.9167C8.75 13.2482 8.8817 13.5661 9.11612 13.8005C9.35054 14.035 9.66848 14.1667 10 14.1667C10.3315 14.1667 10.6495 14.035 10.8839 13.8005C11.1183 13.5661 11.25 13.2482 11.25 12.9167C11.25 12.5851 11.1183 12.2672 10.8839 12.0328C10.6495 11.7984 10.3315 11.6667 10 11.6667C9.66848 11.6667 9.35054 11.7984 9.11612 12.0328C8.8817 12.2672 8.75 12.5851 8.75 12.9167Z" fill="#1E88E5"/>
<path d="M10.4167 12.0833C10.4167 12.1938 10.4606 12.2998 10.5388 12.378C10.6169 12.4561 10.7229 12.5 10.8334 12.5C10.9439 12.5 11.0499 12.4561 11.128 12.378C11.2062 12.2998 11.2501 12.1938 11.2501 12.0833C11.2501 11.9728 11.2062 11.8668 11.128 11.7887C11.0499 11.7106 10.9439 11.6667 10.8334 11.6667C10.7229 11.6667 10.6169 11.7106 10.5388 11.7887C10.4606 11.8668 10.4167 11.9728 10.4167 12.0833Z" fill="white"/>
</svg>
